HIERARCHY
ROOT SimulationBone
{
	OFFSET 0.000000 0.000000 0.000000
	CHANNELS 6 Xposition Yposition Zposition Zrotation Yrotation Xrotation 
	JOINT Hips
	{
		OFFSET 0.000000 0.000000 0.000000
		CHANNELS 6 Xposition Yposition Zposition Zrotation Yrotation Xrotation 
		JOINT LeftUpLeg
		{
			OFFSET 0.103457 1.857818 10.548502
			CHANNELS 3 Zrotation Yrotation Xrotation
			JOINT LeftLeg
			{
				OFFSET 43.500000 -0.000011 -0.000004
				CHANNELS 3 Zrotation Yrotation Xrotation
				JOINT LeftFoot
				{
					OFFSET 42.372192 -0.000004 -0.000008
					CHANNELS 3 Zrotation Yrotation Xrotation
					JOINT LeftToe
					{
						OFFSET 17.300014 0.000006 0.000001
						CHANNELS 3 Zrotation Yrotation Xrotation
						End Site
						{
							OFFSET 0.000000 0.000000 0.000000
						}
					}
				}
			}
		}
		JOINT RightUpLeg
		{
			OFFSET 0.103457 1.857817 -10.548505
			CHANNELS 3 Zrotation Yrotation Xrotation
			JOINT RightLeg
			{
				OFFSET 43.500046 -0.000004 0.000011
				CHANNELS 3 Zrotation Yrotation Xrotation
				JOINT RightFoot
				{
					OFFSET 42.372257 0.000000 0.000015
					CHANNELS 3 Zrotation Yrotation Xrotation
					JOINT RightToe
					{
						OFFSET 17.300003 -0.000000 0.000002
						CHANNELS 3 Zrotation Yrotation Xrotation
						End Site
						{
							OFFSET 0.000000 0.000000 0.000000
						}
					}
				}
			}
		}
		JOINT Spine
		{
			OFFSET 6.901961 -2.603721 -0.000001
			CHANNELS 3 Zrotation Yrotation Xrotation
			JOINT Spine1
			{
				OFFSET 12.588108 0.000002 -0.000001
				CHANNELS 3 Zrotation Yrotation Xrotation
				JOINT Spine2
				{
					OFFSET 12.343199 -0.000020 0.000006
					CHANNELS 3 Zrotation Yrotation Xrotation
					JOINT Neck
					{
						OFFSET 25.832905 0.000017 0.000000
						CHANNELS 3 Zrotation Yrotation Xrotation
						JOINT Head
						{
							OFFSET 11.766604 -0.000006 0.000004
							CHANNELS 3 Zrotation Yrotation Xrotation
							End Site
							{
								OFFSET 0.000000 0.000000 0.000000
							}
						}
					}
					JOINT LeftShoulder
					{
						OFFSET 19.745903 -1.480350 6.000100
						CHANNELS 3 Zrotation Yrotation Xrotation
						JOINT LeftArm
						{
							OFFSET 11.284130 -0.000016 -0.000016
							CHANNELS 3 Zrotation Yrotation Xrotation
							JOINT LeftForeArm
							{
								OFFSET 33.000046 0.000004 0.000031
								CHANNELS 3 Zrotation Yrotation Xrotation
								JOINT LeftHand
								{
									OFFSET 25.199999 0.000027 0.000001
									CHANNELS 3 Zrotation Yrotation Xrotation
									End Site
									{
										OFFSET 0.000000 0.000000 0.000000
									}
								}
							}
						}
					}
					JOINT RightShoulder
					{
						OFFSET 19.746094 -1.480375 -6.000080
						CHANNELS 3 Zrotation Yrotation Xrotation
						JOINT RightArm
						{
							OFFSET 11.284131 -0.000016 -0.000017
							CHANNELS 3 Zrotation Yrotation Xrotation
							JOINT RightForeArm
							{
								OFFSET 33.000095 0.000009 0.000020
								CHANNELS 3 Zrotation Yrotation Xrotation
								JOINT RightHand
								{
									OFFSET 25.199789 0.000132 0.000423
									CHANNELS 3 Zrotation Yrotation Xrotation
									End Site
									{
										OFFSET 0.000000 0.000000 0.000000
									}
								}
							}
						}
					}
				}
			}
		}
	}
}
MOTION
Frames: 10
Frame Time: 0.033333
-16.401867 0.000000 -499.595346 180.000000 -83.171362 180.000000 -0.655442 88.038582 -2.426639 93.653567 -3.072956 177.385642 172.121286 -16.266915 157.126781 -18.429788 0.536244 -13.310579 59.903300 3.130378 -15.657490 21.454555 0.003101 0.000000 169.480776 21.644897 -150.120004 -43.562141 1.777932 8.676987 84.649369 -3.982673 10.851551 21.454560 -0.003105 -0.000017 8.684972 -0.868108 -0.726993 7.369005 -1.688301 -1.507830 7.050882 -1.697231 -1.497600 17.891196 -0.283450 -5.177157 -13.707080 15.468247 -10.633030 -163.097910 -81.602906 -18.712099 -0.274912 45.996632 -26.153213 -102.505403 -1.331978 2.953727 6.637882 -19.339257 10.757063 -146.677602 73.874732 35.568207 7.037994 -46.477904 8.192996 -113.203801 -4.006652 -3.097895 -7.326174 -9.446792 56.609861 
-18.328487 0.000000 -500.253059 180.000000 -79.457606 180.000000 -0.732160 87.216164 -1.696762 93.420438 -3.154752 179.075830 172.833798 -17.915805 156.689498 -17.694377 1.227665 -14.102955 58.132724 2.696551 -17.414086 21.454555 0.003095 0.000000 166.091418 20.455100 -153.021454 -48.414631 1.978318 8.900362 86.307083 -4.511804 9.541903 21.454557 -0.003110 -0.000017 8.683009 -0.680991 -0.542807 7.360174 -1.326192 -1.127801 7.042061 -1.332842 -1.119764 18.111819 -2.390574 -6.859356 -14.248602 17.262666 -13.128938 -167.036074 -82.136481 -14.720506 -8.838425 40.689045 -33.820272 -93.121406 -2.490763 2.617952 1.787029 -18.241552 13.523498 -150.038110 73.675721 32.134192 5.630209 -48.322219 8.030590 -110.555102 -3.659197 -3.007381 -5.083172 -9.352349 56.767423 
-20.289635 0.000000 -500.800526 180.000000 -75.748100 180.000000 -0.691818 86.437683 -0.927165 93.352097 -3.180232 -179.125037 173.526092 -19.438290 157.108298 -17.540020 1.882837 -15.141083 58.199564 3.554463 -17.265666 21.454551 0.003088 0.000000 164.084025 18.579303 -155.339894 -51.552386 2.142110 8.879638 88.682486 -4.831714 8.495869 21.454560 -0.003111 -0.000018 8.667489 -0.539751 -0.473864 7.326945 -1.048519 -0.980929 7.008839 -1.054288 -0.974569 18.234956 -3.530954 -8.119280 -14.168812 18.658509 -14.925425 -173.724455 -83.333970 -7.958650 -13.572546 36.138934 -34.700909 -85.683104 -5.532858 2.501523 1.603924 -10.268015 15.090683 -152.873909 73.386858 29.236611 2.393718 -49.758700 7.961887 -107.356012 -3.131622 -2.903822 -2.636038 -8.914991 56.867674 
-22.284709 0.000000 -501.245787 180.000000 -72.070129 180.000000 -0.592458 85.944771 -0.249686 93.479828 -3.064466 -177.720152 173.917462 -20.845001 158.496780 -19.099393 2.923692 -16.524225 62.153355 4.851164 -18.013043 21.454555 0.003082 -0.000000 163.357320 15.671295 -157.277523 -52.526204 2.018724 9.301323 91.551828 -5.443861 7.379083 21.454558 -0.003107 -0.000018 8.689201 -0.427431 -0.536663 7.369683 -0.819936 -1.099398 7.051609 -0.826418 -1.094426 18.103200 -3.987566 -8.692092 -13.293379 19.419317 -15.617849 177.772038 -84.843947 0.601389 -14.737629 34.041967 -32.478246 -81.832298 -7.483271 2.469506 3.481941 -3.030126 14.826293 -155.646009 72.914353 26.404784 -3.420317 -50.729803 8.224016 -103.111889 -2.334232 -2.771090 -0.692127 -8.330288 57.526804 
-24.313106 0.000000 -501.596879 180.000000 -68.449419 180.000000 -0.550373 85.718979 0.124502 93.680144 -2.768677 -177.388952 173.677818 -21.697301 161.059740 -22.709954 4.123675 -17.920485 69.625821 7.849444 -15.173774 21.454553 0.003092 -0.000002 162.877172 11.931201 -160.541657 -52.389392 1.865391 10.152888 93.533375 -6.230925 6.381766 21.454558 -0.003109 -0.000018 8.775973 -0.285737 -0.611321 7.542084 -0.531140 -1.239915 7.224039 -0.538492 -1.236678 17.681039 -4.653804 -8.684006 -12.064437 19.796238 -15.504441 175.190445 -85.564293 3.185551 -13.981229 34.122635 -29.832364 -81.430601 -7.664225 2.464703 4.618418 -1.333234 14.659399 -159.818504 72.386242 22.130105 -10.859801 -51.139791 8.996905 -97.996904 -1.335794 -2.611849 0.729333 -8.010909 58.780567 
-26.374223 0.000000 -501.861839 180.000000 -64.909080 180.000000 -0.685530 85.702164 0.017238 93.783781 -2.270272 -178.144841 172.486865 -21.748391 165.993623 -28.414786 4.744573 -18.208588 77.229755 10.477841 -8.622198 21.454551 0.003094 0.000001 162.335292 7.860004 -165.161214 -51.765806 1.842155 11.204346 94.184969 -7.042594 5.587411 21.454558 -0.003107 -0.000017 8.929458 -0.057180 -0.543207 7.846452 -0.077501 -1.089011 7.528417 -0.083940 -1.088522 17.080271 -6.159668 -8.677657 -11.062560 20.544980 -15.576108 -176.594719 -84.870271 -5.076670 -13.496762 35.404791 -28.605630 -82.457916 -7.145296 2.470573 4.819906 -5.415102 13.804794 -166.065982 71.985358 15.712107 -17.794898 -51.306311 10.180490 -92.642623 -0.317970 -2.442805 1.842295 -8.164859 59.774346 
-28.467459 0.000000 -502.048707 180.000000 -61.468822 180.000000 -1.043671 86.047348 -0.396187 93.728060 -2.046433 -179.201336 170.321040 -19.838696 173.901247 -36.065117 3.846244 -14.287646 79.533421 8.514475 -5.784863 21.454551 0.003086 0.000002 162.376396 4.544101 -169.386355 -50.217764 1.893816 11.750692 94.051684 -7.508149 4.500726 21.454560 -0.003106 -0.000018 9.146373 0.155969 -0.280693 8.279160 0.331547 -0.549516 7.961070 0.328359 -0.551497 16.489806 -8.162676 -9.412276 -10.424343 22.138837 -16.769040 -170.510905 -83.198848 -11.205422 -14.438583 37.180152 -29.936043 -83.073685 -6.833688 2.478185 4.673767 -11.539564 11.889454 -172.834713 71.522066 8.748111 -23.316497 -51.517002 10.391900 -87.541906 1.921753 -2.371937 2.486433 -8.367530 60.179492 
-30.592210 0.000000 -502.165519 180.000000 -58.144489 180.000000 -1.578252 86.516281 -1.018344 93.564999 -1.467948 -179.729240 166.928116 -16.554587 -176.912309 -44.346707 1.450556 -8.703470 78.803417 4.716395 -5.445689 21.454550 0.003098 0.000000 163.169927 1.778905 -172.047807 -47.837620 1.979061 11.653586 93.705114 -7.562473 3.125168 21.454558 -0.003107 -0.000017 9.402767 0.462208 0.187453 8.794629 0.908786 0.409490 8.476476 0.911369 0.403999 16.229962 -9.804290 -11.190241 -10.149186 24.188512 -19.229388 -169.303478 -81.748977 -12.425198 -16.413465 38.853856 -32.915412 -83.195133 -6.787774 2.480260 4.596462 -15.197948 10.809867 -177.751397 70.798544 3.678501 -27.439102 -51.720395 10.637504 -83.015403 4.037236 -2.320110 2.616785 -8.255477 60.689899 
-32.747875 0.000000 -502.220314 180.000000 -54.947918 180.000000 -2.146620 87.251099 -1.540068 93.272107 -0.964602 -179.787925 163.015415 -12.119514 -170.052750 -51.587729 -0.850374 -3.653316 77.649149 1.391426 -4.528321 21.454558 0.003095 -0.000003 164.757359 -0.438604 -174.221282 -44.264919 2.414738 11.399686 92.993722 -7.564189 1.497439 21.454557 -0.003109 -0.000018 9.641469 0.729403 0.790682 9.280734 1.392996 1.637386 8.962684 1.402998 1.628953 16.491727 -10.744007 -13.620046 -10.363472 26.034791 -22.356683 -168.898079 -81.160597 -12.836134 -18.362255 40.331827 -35.010525 -83.614022 -6.561563 2.482752 4.802922 -16.199464 10.384346 179.551398 70.101435 0.887779 -30.519003 -52.068298 11.043896 -79.242817 5.596816 -2.264865 2.387659 -7.804619 61.814243 
-34.933850 0.000000 -502.221129 180.000000 -51.887075 180.000000 -2.677954 88.250488 -1.878838 92.734826 -1.021541 -179.736886 159.214455 -7.008190 -166.862573 -56.419367 -1.917483 -0.390380 77.138927 -1.247264 -5.712253 21.454557 0.003086 0.000001 166.899825 -1.879899 -176.868800 -39.556702 3.273884 11.287237 91.876337 -7.737147 -0.303936 21.454557 -0.003115 -0.000018 9.818546 0.840438 1.408815 9.644841 1.560476 2.882996 9.327049 1.577988 2.873529 17.035941 -11.366670 -16.024927 -10.988830 27.508317 -25.426948 -167.056482 -81.240135 -14.702923 -19.541438 41.875938 -34.997794 -84.952431 -5.847920 2.491479 5.476687 -17.442428 8.658866 177.781478 69.831075 -0.942430 -32.898101 -52.923212 11.703200 -76.277073 6.718670 -2.215957 1.576302 -7.403432 62.935474 
